<?xml version="1.0" standalone="no"?>
<!-- Generator: Adobe Fireworks 10, Export SVG Extension by Aaron Beall (http://fireworks.abeall.com) . Version: 0.6.1  -->
<!DOCTYPE svg PUBLIC "-//W3C//DTD SVG 1.1//EN" "http://www.w3.org/Graphics/SVG/1.1/DTD/svg11.dtd">
<svg id="Untitled-Page%201" viewBox="0 0 200 200" style="background-color:#ffffff00" version="1.1"
	xmlns="http://www.w3.org/2000/svg" xmlns:xlink="http://www.w3.org/1999/xlink" xml:space="preserve"
	x="0px" y="0px" width="200px" height="200px"
>
	<g id="Layer%201">
		<path d="M 200 100.0034 C 200 155.2263 155.2297 200 100 200 C 44.7734 200 0 155.2263 0 100.0034 C 0 44.7737 44.7734 0 100 0 C 155.2297 0 200 44.7737 200 100.0034 Z" fill="#f90077"/>
		<g>
			<path id="Ellipse" d="M 50.6061 91.2086 C 50.6061 72.9283 66.4812 58.1096 86.0648 58.1096 C 105.6485 58.1096 121.5236 72.9283 121.5236 91.2086 C 121.5236 109.2758 106.014 123.9626 86.7439 124.301 C 86.5179 124.3049 86.2915 124.3068 86.0648 124.3068 C 85.7133 124.3068 86.0648 134.6367 66.5546 136.6206 C 69.226 131.0012 70.8536 121.2849 67.9236 119.6526 C 57.5524 113.8773 50.6061 103.2999 50.6061 91.2086 Z" fill="#ffffff"/>
			<path d="M 154.0031 109.9132 C 154.0031 99.2401 141.8065 90.5177 126.4114 89.885 C 126.5105 90.8932 126.5591 91.912 126.5591 92.9442 C 126.5591 107.1217 117.0095 119.2167 103.5875 123.9312 C 108.9237 127.6631 116.3739 129.9806 124.616 129.9806 L 125.4871 129.9729 C 126.4275 130.6324 124.616 136.245 140.7856 137.4474 C 138.5716 134.0403 137.2226 128.1486 139.6508 127.1594 C 148.2462 123.6578 154.0031 117.2441 154.0031 109.9132 Z" fill="#ffffff"/>
		</g>
	</g>
</svg>