<?xml version="1.0" standalone="no"?>
<!-- Generator: Adobe Fireworks 10, Export SVG Extension by Aaron Beall (http://fireworks.abeall.com) . Version: 0.6.1  -->
<!DOCTYPE svg PUBLIC "-//W3C//DTD SVG 1.1//EN" "http://www.w3.org/Graphics/SVG/1.1/DTD/svg11.dtd">
<svg id="Untitled-Page%201" viewBox="0 0 200 200" style="background-color:#ffffff00" version="1.1"
	xmlns="http://www.w3.org/2000/svg" xmlns:xlink="http://www.w3.org/1999/xlink" xml:space="preserve"
	x="0px" y="0px" width="200px" height="200px"
>
	<g id="Layer%201">
		<path d="M 200 100.0034 C 200 155.2263 155.2296 200 100 200 C 44.7734 200 0 155.2263 0 100.0034 C 0 44.7737 44.7734 0 100 0 C 155.2296 0 200 44.7737 200 100.0034 Z" fill="#009f9f"/>
		<g>
			<path d="M 56.4388 74.0205 L 67.5712 74.0205 C 71.3284 74.0205 74.3743 77.0735 74.3743 80.8384 C 74.3743 80.8384 75.8295 94.0728 75.8295 101.7289 C 75.8295 109.3859 74.3743 121.1616 74.3743 121.1616 C 74.3743 124.9265 71.3284 127.9795 67.5712 127.9795 L 56.4388 127.9795 C 52.6815 127.9795 49.6356 124.9265 49.6356 121.1616 C 49.6356 121.1616 46.7252 114.4897 46.7252 102.2153 C 46.7252 88.9689 49.6356 80.8384 49.6356 80.8384 C 49.6356 77.0735 52.6815 74.0205 56.4388 74.0205 Z" fill="#ffffff"/>
			<path d="M 141.7871 74.0205 L 130.6548 74.0205 C 126.8976 74.0205 123.8517 77.0735 123.8517 80.8384 C 123.8517 80.8384 122.3965 94.0728 122.3965 101.7289 C 122.3965 109.3859 123.8517 121.1616 123.8517 121.1616 C 123.8517 124.9265 126.8976 127.9795 130.6548 127.9795 L 141.7871 127.9795 C 145.5445 127.9795 148.5904 124.9265 148.5904 121.1616 C 148.5904 121.1616 151.5008 114.4897 151.5008 102.2153 C 151.5008 88.9689 148.5904 80.8384 148.5904 80.8384 C 148.5904 77.0735 145.5445 74.0205 141.7871 74.0205 Z" fill="#ffffff"/>
			<path d="M 65.6429 94.4375 C 65.6429 94.4375 88.5626 91.5204 99.113 91.5204 C 109.6634 91.5204 131.1277 94.4375 131.1277 94.4375 L 131.1277 107.5625 C 131.1277 107.5625 109.6826 110.4796 99.113 110.4796 C 88.084 110.4796 65.6429 107.5625 65.6429 107.5625 L 65.6429 94.4375 Z" fill="#ffffff"/>
		</g>
	</g>
</svg>