<?xml version="1.0" standalone="no"?>
<!-- Generator: Adobe Fireworks 10, Export SVG Extension by Aaron Beall (http://fireworks.abeall.com) . Version: 0.6.1  -->
<!DOCTYPE svg PUBLIC "-//W3C//DTD SVG 1.1//EN" "http://www.w3.org/Graphics/SVG/1.1/DTD/svg11.dtd">
<svg id="Untitled-Page%201" viewBox="0 0 200 200" style="background-color: white" version="1.1"
	xmlns="http://www.w3.org/2000/svg" xmlns:xlink="http://www.w3.org/1999/xlink" xml:space="preserve"
	x="0px" y="0px" width="150px" height="150px" class="icon"
>
	<g id="Layer%201">
		<path d="M 200 100.0034 C 200 155.2263 155.2297 200 100 200 C 44.7734 200 0 155.2263 0 100.0034 C 0 44.7737 44.7734 0 100 0 C 155.2297 0 200 44.7737 200 100.0034 Z" fill="grey"/>
		<path d="M 77.7291 101.4648 L 83.8815 95.2894 C 84.9351 94.2322 85.5134 92.1919 85.3489 90.703 C 84.9841 87.3677 85.2899 84.0128 86.215 80.8323 C 86.6338 79.3973 86.2535 77.4214 85.1999 76.3641 L 67.1078 58.2056 C 66.0541 57.1483 64.3323 57.1401 63.3942 58.3 C 55.2605 68.391 55.8593 83.3413 65.1983 92.7183 L 73.9103 101.4648 C 74.9665 102.5227 76.6729 102.5227 77.7291 101.4648 ZM 107.4578 112.8914 C 105.9775 112.7292 103.942 113.3088 102.8858 114.3695 L 102.7857 114.4701 C 101.732 115.5273 101.732 117.2427 102.7857 118.2999 L 126.804 142.4055 C 127.8575 143.4628 129.5666 143.4628 130.6203 142.4055 L 138.9004 134.094 C 139.9541 133.0367 139.9541 131.3215 138.9004 130.2635 L 121.7669 113.067 C 120.7107 112.007 118.7422 111.63 117.3108 112.0476 C 115.0491 112.7083 112.6798 113.0487 110.2563 113.0487 C 109.3159 113.0487 108.3829 112.9974 107.4578 112.8914 ZM 141.2082 84.3398 C 142.2618 83.2819 142.2618 81.5673 141.2082 80.5094 L 139.5403 78.838 C 138.4867 77.7781 136.7777 77.7781 135.7241 78.838 L 120.356 94.2632 C 119.3025 95.3206 117.5935 95.3206 116.5398 94.2632 L 114.8745 92.5912 C 113.8208 91.5366 113.8208 89.8187 114.8745 88.7607 L 130.2451 73.3369 C 131.2987 72.2789 131.2987 70.563 130.2451 69.5057 L 128.5797 67.8344 C 127.526 66.7771 125.8171 66.7744 124.7635 67.8344 L 109.3954 83.2616 C 108.3418 84.3188 106.6328 84.3188 105.5791 83.2616 L 103.9087 81.5875 C 102.8551 80.5303 102.8551 78.8124 103.9087 77.7578 L 119.2793 62.3298 C 120.3355 61.272 120.3355 59.5566 119.2793 58.4994 L 117.614 56.8274 C 116.5604 55.7701 114.8514 55.7701 113.7977 56.8274 L 96.5228 74.1698 C 91.6117 79.0995 89.9208 86.0686 91.4087 92.421 C 91.7531 93.8789 91.3548 95.8623 90.2985 96.9216 L 57.3139 130.0284 C 56.2603 131.087 56.2603 132.8016 57.3139 133.8589 L 64.4608 141.0327 C 65.5145 142.0907 67.2234 142.0907 68.2771 141.0327 L 101.2642 107.9266 C 102.318 106.866 104.2993 106.4688 105.7487 106.8119 C 112.0759 108.3069 119.0172 106.614 123.9335 101.679 L 141.2082 84.3398 Z" fill="white"/>
	</g>
</svg>